<svg xmlns="http://www.w3.org/2000/svg" width="350.5" height="220.499" viewBox="0 0 350.5 220.499"><defs><style>.a{fill:#b9d3ee;}.b{fill:#c2def9;}.c,.q{fill:#fff;}.d{fill:#a4c7e8;}.e{opacity:0.1;}.f{fill:#b5d4f2;}.g{fill:#b4d4f4;}.h{fill:#3859e0;}.i{fill:#1c2472;}.j{fill:#111a56;}.k{fill:#eff5ff;}.l,.s,.t,.u,.w,.x{fill:none;}.l{stroke:#eaf4fd;}.l,.n,.o,.p,.q,.r,.u{stroke-miterlimit:10;}.m{fill:#b2b2b2;}.n{fill:#e6332a;}.n,.o,.p,.q,.r,.s,.t{stroke:#878787;}.n,.o,.p,.q{stroke-width:0.705px;}.o{fill:#ffde00;}.p{fill:#2fac66;}.r{fill:#9d9d9c;stroke-width:0.154px;}.s,.t,.w{stroke-linecap:round;stroke-linejoin:round;}.s{stroke-width:2px;}.u{stroke:#f7abd2;stroke-width:2.82px;}.v{fill:#92c0f7;}.w{stroke:#92c0f7;}.x{stroke:#a4c7e8;}</style></defs><g transform="translate(-286 -190.001)"><path class="a" d="M21,42A21.006,21.006,0,0,1,12.825,1.65a21.006,21.006,0,0,1,16.349,38.7A20.875,20.875,0,0,1,21,42ZM21,2.84a18.165,18.165,0,0,0-7.071,34.894A18.166,18.166,0,0,0,28.071,4.267,18.039,18.039,0,0,0,21,2.84Z" transform="translate(286 199)"/><path class="b" d="M872.281,1002.311c-2-1.055-4.273-1.722-5.854-3.335-2.834-2.894-2.463-7.773-4.931-10.984-2.286-2.974-6.505-3.882-8.909-6.762-1.337-1.6-2.384-3.953-4.468-4.074-2.139-.124-3.544,2.481-3.186,4.593s1.815,3.837,2.955,5.651c1.912,3.043-.085,5.408.069,9,.181,4.221,5.706,5.4,7.723,9.108,2.271,4.179-1.931,6.791,1.7,12.129,2.779,4.081,6.03,4.656,7.766,9.57,1.427,4.039,7.817,4.438,11.575,2.381C887,1023.962,880.288,1006.543,872.281,1002.311Z" transform="translate(-522.691 -645.103)"/><path class="c" d="M889.788,1045.5q-2.769-3.845-5.451-7.75-.163-3.274-.354-6.547c-.088-1.484.156-3.533-.447-4.9a.382.382,0,0,0-.432-.176l-.127.046a.391.391,0,0,0-.281.369l.013.108a14.7,14.7,0,0,0,.327,1.59q.047.739.092,1.479.079,1.294.154,2.588c.081,1.408.153,2.816.225,4.225q-5.45-7.947-10.588-16.1.029-4.548-.214-9.089c-.027-.49-.793-.493-.766,0q.211,3.926.214,7.855-4.479-7.181-8.709-14.516a.383.383,0,0,0-.661.387q4.112,7.144,8.474,14.136l-4.152-3.079c-.4-.294-.779.371-.387.661l5.624,4.171.006,0q4.93,7.844,10.174,15.484a54.1,54.1,0,0,0-6.923-3.773c-.446-.2-.835.458-.387.662a54.12,54.12,0,0,1,8.457,4.787q2.695,3.9,5.458,7.76C889.412,1046.284,890.077,1045.9,889.788,1045.5Z" transform="translate(-535.595 -664.876)"/><path class="b" d="M935.441,1004.039c-.16-2.236-.8-4.5-.267-6.684.948-3.909,5.254-6.16,6.662-9.927,1.3-3.489-.149-7.52,1.014-11.059.647-1.969,2.077-4.086,1.083-5.905-1.02-1.867-3.953-1.682-5.544-.27s-2.278,3.546-3.208,5.459c-1.559,3.21-4.6,2.77-7.544,4.787-3.46,2.371-1.547,7.643-3.614,11.293-2.327,4.11-6.735,1.943-9.322,7.81-1.978,4.486-.753,7.527-3.98,11.572-2.653,3.325.37,8.918,4.078,11C924.938,1027.816,936.085,1013.008,935.441,1004.039Z" transform="translate(-569.689 -639.282)"/><path class="c" d="M938.256,1038.307c1.189-2.9,2.417-5.788,3.663-8.666q2.673-1.857,5.329-3.739c1.2-.854,3.058-1.725,3.888-2.949a.38.38,0,0,0-.079-.457l-.105-.083a.388.388,0,0,0-.459-.043l-.085.068a14.642,14.642,0,0,0-1.168,1.111q-.6.428-1.2.855-1.049.747-2.1,1.49-1.715,1.212-3.441,2.41,3.83-8.768,8-17.38,3.846-2.367,7.544-4.958c.4-.28,0-.927-.4-.645q-3.2,2.241-6.5,4.309,3.695-7.548,7.651-14.966a.381.381,0,0,0-.673-.354q-3.857,7.219-7.455,14.568l.412-5.115c.039-.488-.722-.461-.76.022l-.558,6.93a.051.051,0,0,0,0,.006q-4.016,8.276-7.7,16.708a53.736,53.736,0,0,0-.46-7.815c-.064-.481-.825-.463-.76.022a53.715,53.715,0,0,1,.412,9.64c-1.248,2.881-2.478,5.77-3.668,8.676C937.4,1038.4,938.07,1038.761,938.256,1038.307Z" transform="translate(-589.823 -657.364)"/><path class="b" d="M897.216,962.965c1.295-2.242,3.1-4.279,3.649-6.81.987-4.539-2.351-9.05-1.915-13.674.4-4.282,3.949-7.738,4.525-12,.321-2.372-.1-5.293,1.853-6.682,2-1.425,4.955.246,5.9,2.516s.579,4.833.579,7.29c0,4.121,3.382,5.2,5.423,8.779,2.4,4.209-2.247,8.721-1.941,13.556.344,5.444,6.018,5.416,5.746,12.817-.208,5.658-3.014,8.2-1.7,14.031,1.079,4.793-4.883,9.079-9.786,9.374C896.135,992.968,892.024,971.96,897.216,962.965Z" transform="translate(-558.955 -606.152)"/><path class="c" d="M923.6,1012.255c.229-3.615.408-7.233.565-10.851q-1.84-3.279-3.651-6.573c-.82-1.494-2.307-3.335-2.553-5.025a.439.439,0,0,1,.312-.435l.151-.033a.448.448,0,0,1,.5.187l.053.113a16.838,16.838,0,0,1,.653,1.744q.406.746.813,1.492.712,1.3,1.43,2.607,1.171,2.124,2.359,4.239.444-11.041.458-22.092-2.8-4.4-5.338-8.956c-.273-.492.469-.963.744-.467q2.191,3.941,4.585,7.758-.032-9.705-.4-19.408a.44.44,0,0,1,.878-.028q.366,9.446.4,18.9l2.153-5.522c.205-.527.982-.115.779.406l-2.916,7.482,0,.006q0,10.624-.431,21.242a62.041,62.041,0,0,1,4.419-7.887c.31-.468,1.091-.065.779.406a62.061,62.061,0,0,0-5.29,9.808c-.156,3.623-.336,7.245-.565,10.865C924.443,1012.786,923.565,1012.821,923.6,1012.255Z" transform="translate(-575.521 -629.895)"/><path class="b" d="M887.545,1167.751l6.326,25.029h19.8l5.5-25.029Z" transform="translate(-553.535 -782.887)"/><path class="d" d="M916.717,1166.7h-32.18a.962.962,0,0,1-.963-.963h0a.962.962,0,0,1,.963-.962h32.18a.962.962,0,0,1,.963.962h0a.962.962,0,0,1-.963.963Z" transform="translate(-550.665 -780.735)"/><ellipse class="e" cx="23.776" cy="1.865" rx="23.776" ry="1.865" transform="translate(546.821 405.644)"/><path class="f" d="M1533.051,1210.264s5.364-8.313,2.35-20.167c0,0-8.753,1.927-11.707,20.147Z" transform="translate(-955.983 -802.977)"/><path class="c" d="M1540.859,1228.627s2.307-10.932,3.587-13.116c0,0-3.853,6.918-4.437,13.114Z" transform="translate(-967.776 -821.35)"/><path class="g" d="M1495.726,1210.7s-5.329-8.335-2.267-20.176c0,0,8.745,1.962,11.624,20.195Z" transform="translate(-933.299 -803.286)"/><path class="c" d="M1509.281,1229.108s-2.262-10.941-3.533-13.13c0,0,3.825,6.934,4.383,13.132Z" transform="translate(-942.863 -821.688)"/><path class="b" d="M1456.811,1195.409s-6.87-10.744-2.923-26.008c0,0,11.273,2.529,14.984,26.032Z" transform="translate(-904.478 -788.017)"/><path class="c" d="M1474.285,1219.139s-2.915-14.1-4.554-16.926c0,0,4.93,8.938,5.651,16.928Z" transform="translate(-916.807 -811.737)"/><path class="b" d="M1569.876,1195.715s6.914-10.716,3.029-26c0,0-11.283,2.483-15.09,25.971Z" transform="translate(-980.649 -788.246)"/><path class="c" d="M1579.941,1219.387s2.974-14.092,4.624-16.908c0,0-4.967,8.918-5.72,16.905Z" transform="translate(-995.852 -811.929)"/><path class="h" d="M210.387,289.646H183l11.377-47.615h27.389Z" transform="translate(270.003 113.184)"/><path class="i" d="M213.7,289.646H186.31l11.377-47.615h27.389Z" transform="translate(270.467 113.184)"/><path class="j" d="M189.495,271.751l-.88,3.683,26.514,3.664,3.511-14.695Z" transform="translate(270.8 116.376)"/><rect class="h" width="195.494" height="133.618" rx="4.677" transform="translate(370.596 256.57)"/><rect class="i" width="195.494" height="133.618" rx="4.677" transform="translate(375.415 256.57)"/><rect class="c" width="179.255" height="122.519" transform="translate(383.54 262.12)"/><path class="i" d="M0,0H78.454a4.978,4.978,0,0,1,4.978,4.978V6.715a0,0,0,0,1,0,0H0a0,0,0,0,1,0,0V0A0,0,0,0,1,0,0Z" transform="translate(432.478 402.829)"/><path class="h" d="M0,0H15.958a4.978,4.978,0,0,1,4.978,4.978V6.715a0,0,0,0,1,0,0H0a0,0,0,0,1,0,0V0A0,0,0,0,1,0,0Z" transform="translate(432.555 402.829)"/><path class="k" d="M5.641,0H134.72a5.64,5.64,0,0,1,5.64,5.64V80.655A5.641,5.641,0,0,1,134.72,86.3H5.64A5.64,5.64,0,0,1,0,80.656V5.641A5.641,5.641,0,0,1,5.641,0Z" transform="translate(400.552 273.931)"/><rect class="b" width="38.583" height="25.053" rx="2" transform="translate(405.555 288.455)"/><rect class="b" width="38.583" height="34.854" rx="2" transform="translate(405.555 319.488)"/><rect class="b" width="85.804" height="9.129" rx="1" transform="translate(450.17 287.943)"/><line class="l" x2="84.998" transform="translate(450.573 301.182)"/><line class="l" x2="84.998" transform="translate(450.573 304.551)"/><line class="l" x2="84.998" transform="translate(450.573 307.92)"/><line class="l" x2="84.998" transform="translate(450.573 311.288)"/><line class="l" x2="84.998" transform="translate(450.573 314.657)"/><line class="l" x2="84.998" transform="translate(450.573 318.025)"/><line class="l" x2="84.998" transform="translate(450.573 321.394)"/><line class="l" x2="84.998" transform="translate(450.573 324.763)"/><rect class="b" width="25.01" height="23.789" rx="2" transform="translate(450.658 330.709)"/><rect class="b" width="51.7" height="23.789" rx="2" transform="translate(483.841 330.709)"/><path class="m" d="M101.48,116.919v-6.343a2.665,2.665,0,0,1,2.665-2.666h135.03a2.665,2.665,0,0,1,2.665,2.666v6.343" transform="translate(299.072 163.907)"/><path class="n" d="M112.1,116.06a1.5,1.5,0,1,1-1.5-1.5A1.5,1.5,0,0,1,112.1,116.06Z" transform="translate(295.205 160.434)"/><path class="o" d="M121.263,116.06a1.5,1.5,0,1,1-1.5-1.5A1.5,1.5,0,0,1,121.263,116.06Z" transform="translate(290.362 160.434)"/><path class="p" d="M130.428,116.06a1.5,1.5,0,1,1-1.5-1.5A1.5,1.5,0,0,1,130.428,116.06Z" transform="translate(285.518 160.434)"/><path class="q" d="M257.327,117.559h-116.5v-3h116.5Z" transform="translate(278.298 160.433)"/><path class="r" d="M146.411,117.559h-5.58v-3h5.58Z" transform="translate(278.434 160.433)"/><path class="s" d="M199.341,211.5c3.458-5.852,7.182-1.012,10.9.585,5.852,2.66,7.98-3.192,13.3-3.192,4.522,0,6.471,4.61,11.258,3.546,3.458-1.064,10.285-7.588,12.413-.938" transform="translate(247.463 112.765)"/><path class="t" d="M213.918,183.2c2.394,1.329,4.788,2.925,6.915,4.255,0,0-5.585,1.6-8.511,2.394" transform="translate(240.649 125.686)"/><path class="t" d="M276.578,183.2c-2.393,1.329-4.787,2.925-6.916,4.255,0,0,5.585,1.6,8.511,2.394" transform="translate(210.345 125.686)"/><path class="u" d="M186.049,206.432" transform="translate(254.542 113.736)"/><path class="u" d="M313.889,206.432" transform="translate(186.982 113.736)"/><rect class="b" width="24.654" height="24.654" rx="3.245" transform="translate(349.144 212.438)"/><path class="c" d="M107.468,130.542,97.2,133.127l2.407,2.407-4.558,4.558,2.868,2.868,4.558-4.558,2.407,2.407Z" transform="translate(260.204 88.014)"/><rect class="v" width="38.893" height="38.893" rx="5.12" transform="translate(543.767 228.894) rotate(180)"/><path class="c" d="M279.464,132.014a1.394,1.394,0,0,1-.466.08l-24.139.008a1.415,1.415,0,0,1-1.227-2.123L265.7,109.07a1.414,1.414,0,0,1,2.451,0l12.077,20.9a1.413,1.413,0,0,1-.759,2.044Zm-23.94-1.712,22.809-.008-11.411-19.75Z" transform="translate(257.397 88.356)"/><path class="c" d="M267.117,126.262h0a.855.855,0,0,1-.854-.816l-.488-8.227a1.34,1.34,0,0,1,1.338-1.4h0a1.341,1.341,0,0,1,1.34,1.4l-.482,8.227A.855.855,0,0,1,267.117,126.262Z" transform="translate(257.217 88.241)"/><path class="c" d="M268,128.427a.87.87,0,1,1-.87-.869A.871.871,0,0,1,268,128.427Z" transform="translate(257.21 88.06)"/><rect class="b" width="23.344" height="23.344" rx="3.073" transform="translate(629.641 288.893) rotate(180)"/><path class="c" d="M369.759,188.34a7.572,7.572,0,0,0,0-3.54l-1.6.234a5.942,5.942,0,0,0-.612-1.476l1.3-.97a7.652,7.652,0,0,0-2.5-2.5l-.97,1.3a5.979,5.979,0,0,0-1.476-.612l.235-1.6a7.612,7.612,0,0,0-3.541,0l.234,1.6a5.98,5.98,0,0,0-1.476.612l-.97-1.3a7.639,7.639,0,0,0-2.5,2.5l1.3.97a5.979,5.979,0,0,0-.612,1.476l-1.6-.234a7.608,7.608,0,0,0,0,3.54l1.6-.234a5.979,5.979,0,0,0,.612,1.476l-1.3.97a7.639,7.639,0,0,0,2.5,2.5l.97-1.3a5.942,5.942,0,0,0,1.476.612l-.234,1.6a7.611,7.611,0,0,0,3.541,0l-.235-1.6a5.941,5.941,0,0,0,1.476-.612l.97,1.3a7.652,7.652,0,0,0,2.5-2.5l-1.3-.97a5.942,5.942,0,0,0,.612-1.476Zm-7.4,1.9a3.666,3.666,0,1,1,3.667-3.666A3.666,3.666,0,0,1,362.36,190.236Z" transform="translate(255.609 90.693)"/><path class="w" d="M102.788,238.713a1.455,1.455,0,1,1-1.455-1.455A1.456,1.456,0,0,1,102.788,238.713Z" transform="translate(260.123 92.018)"/><path class="w" d="M380.747,221.774a1.455,1.455,0,1,1-1.455-1.455A1.455,1.455,0,0,1,380.747,221.774Z" transform="translate(255.253 91.574)"/><path class="w" d="M298.121,173.8a1.455,1.455,0,1,1-1.455-1.456A1.456,1.456,0,0,1,298.121,173.8Z" transform="translate(286.064 90.317)"/><path class="w" d="M160.932,128.477a1.455,1.455,0,1,1-1.455-1.455A1.456,1.456,0,0,1,160.932,128.477Z" transform="translate(259.105 88.068)"/><line class="w" y2="4.507" transform="translate(474.583 227.375)"/><line class="w" x1="4.506" transform="translate(472.329 229.629)"/><line class="w" y2="4.506" transform="translate(344.916 269.003)"/><line class="w" x1="4.506" transform="translate(342.662 271.281)"/><line class="x" x2="283.801" transform="translate(333.752 410)"/><path class="a" d="M196.929,148.462A13.04,13.04,0,1,1,209.97,135.42,13.056,13.056,0,0,1,196.929,148.462Zm0-20.924a7.883,7.883,0,1,0,7.885,7.882A7.892,7.892,0,0,0,196.929,127.538Z" transform="translate(401.536 79.757)"/></g></svg>