<?xml version="1.0" encoding="utf-8"?>
<!-- Generator: Adobe Illustrator 22.1.0, SVG Export Plug-In . SVG Version: 6.00 Build 0) -->
<svg version="1.1" id="Layer_1" xmlns="http://www.w3.org/2000/svg" xmlns:xlink="http://www.w3.org/1999/xlink" x="0px" y="0px" viewBox="0 0 440 348.9" style="enable-background:new 0 0 440 348.9;" xml:space="preserve">
	<style type="text/css">
		.st0{fill:#E7EDF7;}
		.st1{fill:#FFFFFF;}
		.st2{fill:#C96A50;stroke:#6172A3;stroke-width:0.8574;stroke-linecap:round;stroke-linejoin:round;}
		.st3{fill:#66D17A;stroke:#6172A3;stroke-width:0.8574;stroke-linecap:round;stroke-linejoin:round;}
		.st4{fill:#E3E5E4;stroke:#6172A3;stroke-width:0.8574;stroke-linecap:round;stroke-linejoin:round;}
		.st5{fill:#D1D5E0;}
		.st6{fill:#829AD8;stroke:#6172A3;stroke-width:0.8574;stroke-linecap:round;stroke-linejoin:round;}
		.st7{fill:#DFE3EF;}
		.st8{fill:#FFFFFF;stroke:#6172A3;stroke-width:0.8574;stroke-linecap:round;stroke-linejoin:round;}
		.st9{fill:none;stroke:#6172A3;stroke-width:0.8574;stroke-linecap:round;stroke-linejoin:round;}
		.st10{fill:#EFD154;stroke:#6172A3;stroke-width:0.8574;stroke-linecap:round;stroke-linejoin:round;}
		.st11{fill:#6BDD91;stroke:#6172A3;stroke-width:0.5716;stroke-miterlimit:10;}
		.st12{fill:#F26D8C;stroke:#6172A3;stroke-width:0.5716;stroke-miterlimit:10;}
		.st13{fill:#6172A3;}
		.st14{fill:#9696AA;stroke:#6172A3;stroke-width:0.8574;stroke-linecap:round;stroke-linejoin:round;}
		.st15{fill:#E88B6B;stroke:#6172A3;stroke-width:0.8574;stroke-linecap:round;stroke-linejoin:round;}
		.st16{fill:#C17561;stroke:#6172A3;stroke-width:0.8574;stroke-linecap:round;stroke-linejoin:round;}
		.st17{fill:#E88B6B;stroke:#6172A3;stroke-width:0.612;stroke-linecap:round;stroke-linejoin:round;}
		.st18{fill:#C17561;stroke:#6172A3;stroke-width:0.612;stroke-linecap:round;stroke-linejoin:round;}
		.st19{fill:#C96A50;stroke:#6172A3;stroke-width:0.612;stroke-linecap:round;stroke-linejoin:round;}
		.st20{fill:#E88B6B;stroke:#6172A3;stroke-width:0.4448;stroke-linecap:round;stroke-linejoin:round;}
		.st21{fill:#C17561;stroke:#6172A3;stroke-width:0.4448;stroke-linecap:round;stroke-linejoin:round;}
		.st22{fill:#C96A50;stroke:#6172A3;stroke-width:0.4448;stroke-linecap:round;stroke-linejoin:round;}
	</style>
	<g>
		<g id="BACKGROUND">
			<path class="st0" d="M6.1,202c0-33.8,7.7-107.1,99-135.8s104,2,190-46.7s149.3,74.7,139.3,163.3s-50,96.7-50,96.7H45.8
			C45.8,279.5,6.1,279.5,6.1,202z" />
			<path class="st1" d="M363.1,132.7h-31.7c0.6-1.8,2.1-3.2,4-3.8c0.8-3.2,4-5.1,7.1-4.4c0.5,0.1,0.9,0.3,1.4,0.5
			c1.7-1.3,3.9-1.5,5.9-0.7c0.5-0.1,0.9-0.2,1.4-0.2c2.6,0,4.9,1.7,5.7,4.2c0.2,0,0.4,0,0.6,0C360.1,128.4,362.4,130.2,363.1,132.7z
			" />
			<path class="st1" d="M267.6,90h-32.9c0.6-2.7,3-4.7,5.8-4.7c0.2,0,0.5,0,0.7,0c0.5-2.8,3-4.8,5.8-4.8c0.9,0,1.9,0.2,2.7,0.6
			c1.8-1.5,4.3-1.8,6.4-0.8c0.4-0.1,0.8-0.1,1.1-0.1c2.7,0,5,1.8,5.7,4.4C265.5,85.2,267.4,87.4,267.6,90z" />
			<path class="st1" d="M72,140.8h27.9c-0.5-2.3-2.5-4-4.9-4c-0.2,0-0.4,0-0.6,0c-0.5-2.7-3.1-4.5-5.8-4c-0.5,0.1-0.9,0.2-1.4,0.5
			c-1.5-1.3-3.7-1.5-5.4-0.7c-0.3-0.1-0.7-0.1-1-0.1c-2.3,0-4.3,1.5-4.8,3.7C73.8,136.7,72.1,138.5,72,140.8z" />
		</g>
		<g id="OBJECTS">
			<rect x="378.6" y="275.9" class="st2" width="1.1" height="3.1" />
			<path class="st3" d="M384.1,255.2v16.1c0,2.8-2.3,5.1-5.1,5.1h0l0,0c-0.4,0-0.8,0-1.1-0.1c-2.3-0.5-4-2.6-4-5v-16.1
			c0-2.4,1.7-4.5,4-5c0.4-0.1,0.8-0.1,1.1-0.1l0,0C381.8,250.1,384.1,252.4,384.1,255.2z" />
			<rect x="42.6" y="275.9" class="st2" width="1.1" height="3.1" />
			<path class="st3" d="M48.1,255.2v16.1c0,2.8-2.3,5.1-5.1,5.1c0,0,0,0,0,0l0,0c-0.4,0-0.8,0-1.1-0.1c-2.3-0.5-4-2.6-4-5v-16.1
			c0-2.4,1.7-4.5,4-5c0.4-0.1,0.8-0.1,1.1-0.1l0,0C45.8,250.1,48.1,252.4,48.1,255.2z" />
			<polygon class="st4" points="377.7,186.3 377.7,279.2 304.2,279.2 304.2,186.3 341.9,164.9 		" />
			<polygon class="st5" points="377.2,189 377.2,194.6 341,171.1 304.7,194.6 304.6,189.1 341,165.6 		" />
			<polygon class="st6" points="383.6,194.6 341,167 298.3,194.6 298.3,189.1 341,161.5 383.6,189.1 		" />
			<rect x="327" y="231" class="st5" width="6" height="2.9" />
			<rect x="347.2" y="228" class="st5" width="6" height="2.9" />
			<rect x="340.9" y="184.1" class="st5" width="6" height="2.9" />
			<rect x="308.7" y="219.8" class="st7" width="6" height="2.9" />
			<rect x="363" y="221.2" class="st5" width="6" height="2.9" />
			<rect x="342" y="268.1" class="st5" width="6" height="2.9" />
			<rect x="316.4" y="197.5" class="st6" width="8.1" height="8.1" />
			<rect x="324.6" y="197.5" class="st6" width="8.1" height="8.1" />
			<rect x="316.4" y="205.7" class="st6" width="8.1" height="8.1" />
			<rect x="324.6" y="205.7" class="st6" width="8.1" height="8.1" />
			<rect x="315.4" y="213.8" class="st8" width="18.4" height="1.5" />
			<polygon class="st8" points="329.1,213.5 327.4,213.5 326.8,209.7 329.7,209.7 		" />
			<path class="st9" d="M328.1,209.6c-0.3-0.7,0-1.6,0.7-2c1.2-0.8,1-1.6,1-1.6" />
			<path class="st10" d="M330.4,205.7c0,0.3-0.3,0.6-0.6,0.6s-0.6-0.3-0.6-0.6c0-0.3,0.3-0.6,0.6-0.6l0,0
			C330.1,205.1,330.4,205.3,330.4,205.7z" />
			<path class="st11" d="M327.9,207.4c0.1,0.4,0.1,0.8,0,1.1c-0.4,0-0.7-0.2-1-0.5c-0.2-0.4-0.2-0.8,0-1.1
			C327.2,206.9,327.6,207.1,327.9,207.4z" />
			<path class="st11" d="M329.5,209c-0.4,0.1-0.8,0-1.1-0.2c0,0,0.2-0.7,0.7-0.9c0.4-0.1,0.8,0,1.1,0.2
			C330.2,208.2,330,208.9,329.5,209z" />
			<path class="st12" d="M330.9,204.4c-0.2,0.5-0.9,0.7-0.9,0.7c-0.2-0.3-0.3-0.7-0.2-1.1c0.2-0.3,0.5-0.6,0.9-0.7
			C331,203.7,331,204.1,330.9,204.4z" />
			<path class="st12" d="M329.3,204c0.2,0.3,0.2,0.7,0.1,1.1c-0.6,0.1-1.1-0.3-1.3-0.8c0-0.2,0-0.5,0.1-0.7
			C328.6,203.6,329,203.8,329.3,204z" />
			<path class="st12" d="M328.1,205.3c0.4,0,0.7,0.2,1,0.4c0,0-0.3,0.6-0.9,0.7c-0.4,0-0.7-0.2-1-0.4
			C327.2,206,327.6,205.3,328.1,205.3z" />
			<path class="st12" d="M328.6,206.9c0.2-0.3,0.5-0.6,0.9-0.7c0.2,0.3,0.3,0.7,0.2,1.1c-0.2,0.3-0.5,0.6-0.9,0.7
			C328.5,207.7,328.5,207.3,328.6,206.9z" />
			<path class="st12" d="M330.2,207.3c-0.2-0.3-0.2-0.7-0.1-1.1c0.4,0,0.8,0.1,1,0.4c0.2,0.3,0.2,0.7,0.1,1.1
			C330.9,207.7,330.5,207.6,330.2,207.3z" />
			<path class="st12" d="M331.4,206.1c-0.4,0-0.7-0.2-1-0.4c0,0,0.3-0.6,0.9-0.7c0.4,0,0.7,0.2,1,0.4
			C332.1,205.7,331.8,206,331.4,206.1z" />
			<polygon class="st5" points="315,215.5 318.1,218.7 337.7,218.8 334,215.3 		" />
			<rect x="348.9" y="197.4" class="st6" width="8.1" height="8.1" />
			<rect x="357.1" y="197.4" class="st6" width="8.1" height="8.1" />
			<rect x="348.9" y="197.4" class="st13" width="8.1" height="3.5" />
			<rect x="357.1" y="197.4" class="st13" width="8.1" height="3.5" />
			<rect x="348.9" y="205.6" class="st6" width="8.1" height="8.1" />
			<rect x="357.1" y="205.6" class="st6" width="8.1" height="8.1" />
			<rect x="347.9" y="213.8" class="st8" width="18.4" height="1.5" />
			<polygon class="st5" points="347.6,215.5 350.8,218.7 370.3,218.8 366.6,215.3 		" />
			<rect x="348.9" y="238.6" class="st6" width="8.1" height="8.1" />
			<rect x="357.1" y="238.6" class="st6" width="8.1" height="8.1" />
			<rect x="348.9" y="238.6" class="st13" width="8.1" height="3.5" />
			<rect x="357.1" y="238.6" class="st13" width="8.1" height="3.5" />
			<rect x="348.9" y="246.7" class="st6" width="8.1" height="8.1" />
			<rect x="357.1" y="246.7" class="st6" width="8.1" height="8.1" />
			<rect x="347.9" y="254.9" class="st8" width="18.4" height="1.5" />
			<polygon class="st5" points="347.6,256.7 350.8,259.8 370.3,260 366.6,256.4 		" />
			<rect x="317" y="238.6" class="st6" width="8.1" height="8.1" />
			<rect x="325.2" y="238.6" class="st6" width="8.1" height="8.1" />
			<rect x="317" y="238.6" class="st13" width="8.1" height="3.5" />
			<rect x="325.2" y="238.6" class="st13" width="8.1" height="3.5" />
			<rect x="317" y="246.7" class="st6" width="8.1" height="8.1" />
			<rect x="325.2" y="246.7" class="st6" width="8.1" height="8.1" />
			<rect x="316" y="254.9" class="st8" width="18.4" height="1.5" />
			<polygon class="st5" points="315.7,256.7 318.9,259.8 338.4,260 334.8,256.4 		" />
			<rect x="46.3" y="207.9" class="st4" width="106.5" height="71.3" />
			<rect x="46.7" y="208.8" class="st5" width="106" height="4.4" />
			<polygon class="st5" points="57.2,278.6 106.2,210 106.2,278.1 		" />
			<polygon class="st6" points="220.9,208.4 44.8,208.4 67.7,179.6 198,179.6 		" />
			<polygon class="st13" points="257.3,208.4 81.2,208.4 104.1,179.6 234.4,179.6 		" />
			<rect x="61.4" y="237.7" class="st14" width="62" height="41.4" />
			<rect x="63.2" y="239.5" class="st8" width="58.5" height="39.6" />
			<rect x="65.2" y="250.2" class="st8" width="54.3" height="2.8" />
			<rect x="65.4" y="250.3" class="st8" width="53.9" height="2.6" />
			<rect x="65.7" y="250.5" class="st8" width="53.4" height="2.2" />
			<rect x="65.2" y="245.4" class="st8" width="54.3" height="2.8" />
			<rect x="65.4" y="245.6" class="st8" width="53.9" height="2.6" />
			<rect x="65.7" y="245.7" class="st8" width="53.4" height="2.2" />
			<rect x="65.2" y="255" class="st8" width="54.3" height="2.8" />
			<rect x="65.4" y="255.1" class="st8" width="53.9" height="2.6" />
			<rect x="65.7" y="255.3" class="st8" width="53.4" height="2.2" />
			<rect x="65.2" y="259.7" class="st8" width="54.3" height="2.8" />
			<rect x="65.4" y="259.9" class="st8" width="53.9" height="2.6" />
			<rect x="65.7" y="260" class="st8" width="53.4" height="2.2" />
			<rect x="65.2" y="264.5" class="st8" width="54.3" height="2.8" />
			<rect x="65.4" y="264.6" class="st8" width="53.9" height="2.6" />
			<rect x="65.7" y="264.8" class="st8" width="53.4" height="2.2" />
			<rect x="65.2" y="269.3" class="st8" width="54.3" height="2.8" />
			<rect x="65.4" y="269.4" class="st8" width="53.9" height="2.6" />
			<rect x="65.7" y="269.6" class="st8" width="53.4" height="2.2" />
			<rect x="65.2" y="274.1" class="st8" width="54.3" height="2.8" />
			<rect x="65.4" y="274.2" class="st8" width="53.9" height="2.6" />
			<rect x="65.7" y="274.4" class="st8" width="53.4" height="2.2" />
			<polygon class="st7" points="63.6,239.5 119.7,239.5 122.1,239.5 122.1,241.4 122.1,279.1 80.7,279.1 100.5,241.4 63.6,241.4 		
			" />
			<rect x="105.5" y="187.4" class="st8" width="220.7" height="91.9" />
			<polygon class="st7" points="325.8,214.6 105.9,192.3 105.9,188.5 325.8,188.5 		" />
			<path class="st6" d="M287.3,229.5h7.5c4.5,0,8.1,3.6,8.1,8.1l0,0l0,0h-23.7l0,0l0,0C279.2,233.1,282.8,229.5,287.3,229.5z" />
			<rect x="279.1" y="239.5" class="st6" width="23.9" height="39.3" />
			<rect x="279.1" y="239.7" class="st13" width="23.9" height="1.8" />
			<rect x="300.2" y="241" class="st13" width="2.8" height="38" />
			<line class="st9" x1="65.1" y1="199" x2="73.8" y2="199" />
			<line class="st9" x1="78.8" y1="188.6" x2="87.5" y2="188.6" />
			<line class="st9" x1="94" y1="196.2" x2="102.6" y2="196.2" />
			<line class="st9" x1="290.8" y1="229.8" x2="290.8" y2="237.5" />
			<line class="st9" x1="302.3" y1="234.7" x2="279.8" y2="234.7" />
			<path class="st6" d="M284,258.2c0,0.7-0.5,1.2-1.2,1.2s-1.2-0.5-1.2-1.2s0.5-1.2,1.2-1.2S284,257.5,284,258.2L284,258.2z" />
			<rect x="205.7" y="225.9" class="st7" width="6" height="2.9" />
			<rect x="307.5" y="224" class="st7" width="6" height="2.9" />
			<rect x="208.4" y="244.9" class="st7" width="6" height="2.9" />
			<rect x="114.1" y="261.5" class="st7" width="6" height="2.9" />
			<rect x="268.6" y="217" class="st7" width="6" height="2.9" />
			<rect x="213.3" y="265.4" class="st7" width="6" height="2.9" />
			<rect x="51.1" y="272.8" class="st5" width="4.1" height="2" />
			<rect x="81.8" y="222.6" class="st5" width="4.1" height="2" />
			<rect x="58.4" y="219.9" class="st5" width="4.1" height="2" />
			<rect x="64.9" y="231.1" class="st5" width="4.1" height="2" />
			<rect x="48.6" y="253.2" class="st5" width="4.1" height="2" />
			<rect x="226.1" y="241.2" class="st7" width="6" height="2.9" />
			<rect x="262.4" y="264.6" class="st7" width="6" height="2.9" />
			<rect x="165" y="218.9" class="st7" width="6" height="2.9" />
			<rect x="118.3" y="233.4" class="st7" width="6" height="2.9" />
			<polygon class="st7" points="128.1,218.8 131.3,222 150.8,222.1 147.2,218.5 		" />
			<rect x="129.5" y="200.7" class="st13" width="8.1" height="2.6" />
			<rect x="137.7" y="200.7" class="st13" width="8.1" height="2.6" />
			<rect x="129.5" y="208.8" class="st6" width="8.1" height="8.1" />
			<rect x="137.7" y="208.8" class="st6" width="8.1" height="8.1" />
			<rect x="128.5" y="217" class="st8" width="18.4" height="1.5" />
			<polygon class="st7" points="182.4,218.8 185.6,222 205.1,222.1 201.5,218.5 		" />
			<rect x="183.8" y="200.7" class="st13" width="8.1" height="2.6" />
			<rect x="192" y="200.7" class="st13" width="8.1" height="2.6" />
			<rect x="183.8" y="208.8" class="st6" width="8.1" height="8.1" />
			<rect x="192" y="208.8" class="st6" width="8.1" height="8.1" />
			<rect x="182.8" y="217" class="st8" width="18.4" height="1.5" />
			<polygon class="st7" points="236.7,218.8 239.9,222 259.4,222.1 255.8,218.5 		" />
			<rect x="238.1" y="200.7" class="st15" width="8.1" height="8.1" />
			<rect x="246.3" y="200.7" class="st15" width="8.1" height="8.1" />
			<rect x="238.1" y="200.7" class="st13" width="8.1" height="4.2" />
			<rect x="246.3" y="200.7" class="st13" width="8.1" height="4.2" />
			<rect x="238.1" y="208.8" class="st15" width="8.1" height="8.1" />
			<rect x="246.3" y="208.8" class="st15" width="8.1" height="8.1" />
			<rect x="237.1" y="217" class="st8" width="18.4" height="1.5" />
			<polygon class="st7" points="291,218.8 294.2,222 313.7,222.1 310.1,218.5 		" />
			<rect x="292.4" y="200.7" class="st6" width="8.1" height="8.1" />
			<rect x="300.6" y="200.7" class="st6" width="8.1" height="8.1" />
			<rect x="129.5" y="200.7" class="st6" width="8.1" height="8.1" />
			<rect x="137.7" y="200.7" class="st6" width="8.1" height="8.1" />
			<rect x="183.8" y="200.7" class="st6" width="8.1" height="8.1" />
			<rect x="192" y="200.7" class="st6" width="8.1" height="8.1" />
			<rect x="292.4" y="200.7" class="st6" width="8.1" height="8.1" />
			<rect x="300.6" y="200.7" class="st6" width="8.1" height="8.1" />
			<rect x="129.5" y="200.7" class="st13" width="8.1" height="2.6" />
			<rect x="137.7" y="200.7" class="st13" width="8.1" height="2.6" />
			<rect x="183.8" y="200.7" class="st13" width="8.1" height="2.6" />
			<rect x="192" y="200.7" class="st13" width="8.1" height="2.6" />
			<rect x="129.5" y="200.7" class="st13" width="8.1" height="2.6" />
			<rect x="137.7" y="200.7" class="st13" width="8.1" height="2.6" />
			<rect x="183.8" y="200.7" class="st13" width="8.1" height="2.6" />
			<rect x="192" y="200.7" class="st13" width="8.1" height="2.6" />
			<rect x="292.4" y="200.7" class="st13" width="8.1" height="2.6" />
			<rect x="300.6" y="200.7" class="st13" width="8.1" height="2.6" />
			<rect x="292.4" y="208.8" class="st6" width="8.1" height="8.1" />
			<rect x="300.6" y="208.8" class="st6" width="8.1" height="8.1" />
			<rect x="291.4" y="217" class="st8" width="18.4" height="1.5" />
			<polygon class="st7" points="138.6,267.4 141.8,270.6 194.4,270.8 190.8,267.2 		" />
			<rect x="140.1" y="232.7" class="st6" width="8.1" height="8.1" />
			<rect x="148.3" y="232.7" class="st6" width="8.1" height="8.1" />
			<rect x="140.1" y="240.9" class="st6" width="8.1" height="8.1" />
			<rect x="148.3" y="240.9" class="st6" width="8.1" height="8.1" />
			<rect x="156.5" y="232.7" class="st6" width="8.1" height="8.1" />
			<rect x="164.6" y="232.7" class="st6" width="8.1" height="8.1" />
			<rect x="156.5" y="240.9" class="st6" width="8.1" height="8.1" />
			<rect x="164.6" y="240.9" class="st6" width="8.1" height="8.1" />
			<rect x="172.8" y="232.7" class="st6" width="8.1" height="8.1" />
			<rect x="181" y="232.7" class="st6" width="8.1" height="8.1" />
			<rect x="140.1" y="232.7" class="st6" width="8.1" height="8.1" />
			<rect x="148.3" y="232.7" class="st6" width="8.1" height="8.1" />
			<rect x="156.5" y="232.7" class="st6" width="8.1" height="8.1" />
			<rect x="164.6" y="232.7" class="st6" width="8.1" height="8.1" />
			<rect x="172.8" y="232.7" class="st6" width="8.1" height="8.1" />
			<rect x="181" y="232.7" class="st6" width="8.1" height="8.1" />
			<rect x="140.1" y="232.7" class="st13" width="8.1" height="11.8" />
			<rect x="148.3" y="232.7" class="st13" width="8.1" height="11.8" />
			<rect x="156.5" y="232.7" class="st13" width="8.1" height="11.8" />
			<rect x="164.6" y="232.7" class="st13" width="8.1" height="11.8" />
			<rect x="172.8" y="232.7" class="st13" width="8.1" height="11.8" />
			<rect x="181" y="232.7" class="st13" width="8.1" height="11.8" />
			<rect x="172.8" y="240.9" class="st6" width="8.1" height="8.1" />
			<rect x="181" y="240.9" class="st6" width="8.1" height="8.1" />
			<rect x="140.1" y="249.1" class="st6" width="8.1" height="8.1" />
			<rect x="148.3" y="249.1" class="st6" width="8.1" height="8.1" />
			<rect x="140.1" y="257.3" class="st6" width="8.1" height="8.1" />
			<rect x="148.3" y="257.3" class="st6" width="8.1" height="8.1" />
			<rect x="156.5" y="249.1" class="st6" width="8.1" height="8.1" />
			<rect x="164.6" y="249.1" class="st6" width="8.1" height="8.1" />
			<rect x="156.5" y="257.3" class="st6" width="8.1" height="8.1" />
			<rect x="164.6" y="257.3" class="st6" width="8.1" height="8.1" />
			<rect x="172.8" y="249.1" class="st6" width="8.1" height="8.1" />
			<rect x="181" y="249.1" class="st6" width="8.1" height="8.1" />
			<rect x="172.8" y="257.3" class="st6" width="8.1" height="8.1" />
			<rect x="181" y="257.3" class="st6" width="8.1" height="8.1" />
			<rect x="138.7" y="265.6" class="st8" width="51.7" height="1.5" />
			<rect x="275.8" y="123.5" class="st2" width="7.9" height="21.1" />
			<rect x="267.4" y="123.5" class="st15" width="13.2" height="21.1" />
			<rect x="269.9" y="129.9" class="st16" width="4.3" height="2.3" />
			<rect x="267.3" y="134.1" class="st15" width="4.3" height="2.3" />
			<rect x="276.8" y="125.5" class="st16" width="4.3" height="2.3" />
			<rect x="276.5" y="134.2" class="st2" width="4.3" height="2.3" />
			<rect x="277.4" y="129.9" class="st2" width="4.3" height="2.3" />
			<rect x="266.9" y="126" class="st2" width="4.3" height="2.3" />
			<rect x="101.9" y="268.1" class="st17" width="13.2" height="10.8" />
			<rect x="104.4" y="271.4" class="st18" width="4.3" height="1.2" />
			<rect x="101.8" y="273.5" class="st17" width="4.3" height="1.2" />
			<rect x="111.3" y="269.2" class="st18" width="4.3" height="1.2" />
			<rect x="111" y="273.6" class="st19" width="4.3" height="1.2" />
			<rect x="101.7" y="276.7" class="st19" width="4.3" height="1.2" />
			<rect x="111.3" y="276.1" class="st19" width="4.3" height="1.2" />
			<rect x="111.5" y="271.3" class="st19" width="4.3" height="1.2" />
			<rect x="101.4" y="269.4" class="st19" width="4.3" height="1.2" />
			<rect x="315.2" y="268.4" class="st17" width="13.2" height="10.8" />
			<rect x="317.7" y="271.7" class="st18" width="4.3" height="1.2" />
			<rect x="315.1" y="273.8" class="st17" width="4.3" height="1.2" />
			<rect x="324.6" y="269.5" class="st18" width="4.3" height="1.2" />
			<rect x="324.4" y="273.9" class="st19" width="4.3" height="1.2" />
			<rect x="315" y="277" class="st19" width="4.3" height="1.2" />
			<rect x="324.6" y="276.4" class="st19" width="4.3" height="1.2" />
			<rect x="324.8" y="271.7" class="st19" width="4.3" height="1.2" />
			<rect x="314.7" y="269.7" class="st19" width="4.3" height="1.2" />
			<rect x="369.8" y="271.5" class="st20" width="9.6" height="7.8" />
			<rect x="371.6" y="273.9" class="st21" width="3.1" height="0.9" />
			<rect x="369.7" y="275.4" class="st20" width="3.1" height="0.9" />
			<rect x="376.6" y="272.3" class="st21" width="3.1" height="0.9" />
			<rect x="376.4" y="275.5" class="st22" width="3.1" height="0.9" />
			<rect x="369.6" y="277.7" class="st22" width="3.1" height="0.9" />
			<rect x="376.6" y="277.3" class="st22" width="3.1" height="0.9" />
			<rect x="376.8" y="273.8" class="st22" width="3.1" height="0.9" />
			<rect x="369.4" y="272.4" class="st22" width="3.1" height="0.9" />
			<polygon class="st6" points="329.8,189 101.9,189 131.6,138.3 300.1,138.3 		" />
			<polygon class="st13" points="151.4,151.1 185.6,188.9 208.6,188.9 167.8,143.9 		" />
			<rect x="287" y="245.9" class="st6" width="8.1" height="8.1" />
			<rect x="287" y="266.7" class="st6" width="8.1" height="2.1" />
			<polygon class="st13" points="181,174 195.5,188.6 295.9,188.6 255.1,147.8 		" />
			<polygon class="st8" points="254.4,121.5 254.4,174 181,174 181,121.5 218.7,100.2 		" />
			<polygon class="st7" points="254,124.3 254,129.8 217.7,106.4 181.4,129.8 181.3,124.4 217.7,100.9 		" />
			<polygon class="st6" points="260.3,129.8 217.7,102.3 175.1,129.8 175.1,124.3 217.7,96.8 260.3,124.3 		" />
			<line class="st9" x1="142.7" y1="147.3" x2="151.3" y2="147.3" />
			<line class="st9" x1="161.9" y1="155.1" x2="170.6" y2="155.1" />
			<line class="st9" x1="261.3" y1="144.8" x2="269.9" y2="144.8" />
			<line class="st9" x1="287.1" y1="151.1" x2="295.8" y2="151.1" />
			<line class="st9" x1="273" y1="163.1" x2="281.6" y2="163.1" />
			<line class="st9" x1="301.2" y1="178.7" x2="309.8" y2="178.7" />
			<line class="st9" x1="127.5" y1="165.5" x2="136.1" y2="165.5" />
			<line class="st9" x1="159.9" y1="178.5" x2="168.5" y2="178.5" />
			<rect x="203.7" y="166.2" class="st7" width="6" height="2.9" />
			<rect x="217.6" y="119.3" class="st7" width="6" height="2.9" />
			<rect x="185.5" y="155.1" class="st7" width="6" height="2.9" />
			<rect x="239.8" y="156.5" class="st7" width="6" height="2.9" />
			<rect x="193.2" y="132.8" class="st6" width="8.1" height="8.1" />
			<rect x="201.3" y="132.8" class="st6" width="8.1" height="8.1" />
			<rect x="193.2" y="140.9" class="st6" width="8.1" height="8.1" />
			<rect x="201.3" y="140.9" class="st6" width="8.1" height="8.1" />
			<rect x="192.1" y="149.1" class="st8" width="18.4" height="1.5" />
			<polygon class="st8" points="205.9,148.8 204.2,148.8 203.6,145 206.4,145 		" />
			<path class="st9" d="M204.8,144.9c-0.3-0.7,0-1.6,0.7-2c1.2-0.8,1-1.6,1-1.6" />
			<circle class="st10" cx="206.5" cy="140.9" r="0.6" />
			<path class="st11" d="M204.6,142.6c0.3,0.2,0.4,0.6,0.2,0.9c-0.2,0.3-0.6,0.4-0.9,0.2c-0.2-0.1-0.3-0.3-0.3-0.5
			c-0.2-0.4-0.2-0.8,0-1.1C204,142.2,204.4,142.4,204.6,142.6z" />
			<path class="st11" d="M206.3,144.3c-0.4,0.1-0.8,0-1.1-0.2c0,0,0.2-0.7,0.7-0.9c0.4-0.1,0.8,0,1.1,0.2
			C207,143.4,206.8,144.1,206.3,144.3z" />
			<path class="st12" d="M207.7,139.7c-0.2,0.5-0.9,0.7-0.9,0.7c-0.6,0.1-1.1-0.4-1.2-1s0.4-1.1,1-1.2c0.6-0.1,1.1,0.4,1.2,1
			C207.8,139.4,207.7,139.5,207.7,139.7z" />
			<path class="st12" d="M206,139.3c0.2,0.3,0.2,0.7,0.1,1.1c-0.4,0-0.8-0.1-1.1-0.4c-0.2-0.3-0.2-0.7-0.1-1.1
			C205.4,138.9,205.7,139,206,139.3z" />
			<path class="st12" d="M204.8,140.5c0.4,0,0.7,0.2,1,0.4c0,0-0.3,0.6-0.9,0.7c-0.4,0-0.7-0.2-1-0.4
			C204,141.3,204.3,140.5,204.8,140.5z" />
			<path class="st12" d="M205.3,142.2c0.3-0.2,0.7-0.2,0.9,0.1s0.2,0.7-0.1,0.9c-0.2,0.2-0.4,0.2-0.7,0.1
			C205.3,142.9,205.2,142.5,205.3,142.2z" />
			<path class="st12" d="M207,142.5c-0.2-0.3-0.2-0.7-0.1-1.1c0.6-0.1,1.2,0.3,1.3,0.9c0,0.2,0,0.4-0.1,0.6
			C207.6,142.9,207.2,142.8,207,142.5z" />
			<path class="st12" d="M208.2,141.3c-0.4,0-0.7-0.2-1-0.4c0,0,0.3-0.6,0.9-0.7c0.4,0,0.7,0.2,1,0.4
			C209,140.6,208.7,141.3,208.2,141.3z" />
			<polygon class="st7" points="191.7,150.8 194.9,154 214.4,154.1 210.8,150.5 		" />
			<polygon class="st7" points="237.8,254.1 240.9,257.3 260.5,257.5 256.8,253.9 		" />
			<rect x="239.3" y="236.1" class="st6" width="8.1" height="8.1" />
			<rect x="247.4" y="236.1" class="st6" width="8.1" height="8.1" />
			<rect x="239.3" y="244.3" class="st6" width="8.1" height="8.1" />
			<rect x="247.4" y="244.3" class="st6" width="8.1" height="8.1" />
			<rect x="238.2" y="252.4" class="st8" width="18.4" height="1.5" />
			<polygon class="st8" points="251.6,252.1 249.9,252.1 249.3,248.3 252.1,248.3 		" />
			<path class="st9" d="M250.5,248.2c-0.3-0.7,0-1.6,0.7-2c1.2-0.8,1-1.6,1-1.6" />
			<circle class="st10" cx="252.2" cy="244.3" r="0.6" />
			<path class="st11" d="M250.3,246c0.1,0.4,0.1,0.8,0,1.1c-0.4,0-0.7-0.2-1-0.5c-0.1-0.4-0.1-0.8,0-1.1
			C249.7,245.5,250.1,245.7,250.3,246z" />
			<path class="st11" d="M252,247.6c-0.4,0.1-0.8,0-1.1-0.2c0,0,0.2-0.7,0.7-0.9c0.4-0.1,0.8,0,1.1,0.2
			C252.7,246.7,252.4,247.4,252,247.6z" />
			<path class="st12" d="M253.4,243c-0.2,0.5-0.9,0.7-0.9,0.7c-0.2-0.3-0.3-0.7-0.2-1.1c0.2-0.5,0.9-0.7,0.9-0.7
			C253.4,242.2,253.5,242.6,253.4,243z" />
			<path class="st12" d="M251.7,242.6c0.3,0.1,0.5,0.5,0.3,0.9c-0.1,0.3-0.5,0.5-0.9,0.3c-0.2-0.1-0.3-0.3-0.4-0.5
			c-0.2-0.3-0.2-0.7-0.1-1.1C251.1,242.2,251.4,242.3,251.7,242.6z" />
			<path class="st12" d="M250.5,243.8c0.4,0,0.7,0.2,1,0.4c0,0-0.3,0.6-0.9,0.7c-0.4,0-0.7-0.2-1-0.4
			C249.7,244.5,250,243.9,250.5,243.8z" />
			<path class="st12" d="M251,245.5c0.2-0.3,0.5-0.6,0.9-0.7c0.2,0.3,0.3,0.7,0.2,1.1c-0.2,0.5-0.9,0.7-0.9,0.7
			C251,246.2,250.9,245.8,251,245.5z" />
			<path class="st12" d="M252.7,245.9c-0.3-0.1-0.5-0.5-0.3-0.9c0.1-0.3,0.5-0.5,0.9-0.3c0.2,0.1,0.3,0.3,0.4,0.5
			c0.2,0.3,0.2,0.7,0.1,1.1C253.3,246.3,252.9,246.1,252.7,245.9z" />
			<path class="st12" d="M253.9,244.7c-0.4,0-0.7-0.2-1-0.4c0,0,0.3-0.6,0.9-0.7c0.4,0,0.7,0.2,1,0.4
			C254.5,244.3,254.2,244.5,253.9,244.7z" />
			<rect x="225.6" y="132.7" class="st6" width="8.1" height="8.1" />
			<rect x="233.8" y="132.7" class="st6" width="8.1" height="8.1" />
			<rect x="225.6" y="132.7" class="st13" width="8.1" height="3.5" />
			<rect x="233.8" y="132.7" class="st13" width="8.1" height="3.5" />
			<rect x="225.6" y="140.9" class="st6" width="8.1" height="8.1" />
			<rect x="233.8" y="140.9" class="st6" width="8.1" height="8.1" />
			<rect x="224.6" y="149" class="st8" width="18.4" height="1.5" />
			<polygon class="st7" points="224.3,150.8 227.5,154 247,154.1 243.4,150.5 		" />
			<polygon class="st2" points="167.7,144.3 164.4,151.1 159.8,130 167.7,130 		" />
			<rect x="151.4" y="130" class="st15" width="13.2" height="21.1" />
			<rect x="153.8" y="136.4" class="st16" width="4.3" height="2.3" />
			<rect x="151.3" y="140.6" class="st15" width="4.3" height="2.3" />
			<rect x="160.7" y="132" class="st16" width="4.3" height="2.3" />
			<rect x="160.5" y="140.7" class="st2" width="4.3" height="2.3" />
			<rect x="152.9" y="146.3" class="st2" width="4.3" height="2.3" />
			<rect x="161.4" y="136.3" class="st2" width="4.3" height="2.3" />
			<rect x="150.9" y="132.5" class="st2" width="4.3" height="2.3" />
			<rect x="160.1" y="145.6" class="st2" width="4.3" height="2.3" />
			<path class="st5" d="M364.1,243.9L364.1,243.9c-0.5,0-0.9,0.1-1.4,0.2c-2.8,0.6-4.8,3.2-4.8,6.1v19.5c0,2.9,2,5.4,4.8,6.1
			c0.3,0.1,0.7,0.1,1,0.1v3.1h1.4v-3.1c3-0.5,5.3-3.1,5.3-6.1v-19.5C370.3,246.7,367.6,244,364.1,243.9
			C364.1,243.9,364.1,243.9,364.1,243.9z" />
			<rect x="360.5" y="275.2" class="st2" width="1.4" height="3.7" />
			<path class="st3" d="M367.2,250.2v19.5c0,3.4-2.8,6.2-6.2,6.2c0,0,0,0,0,0l0,0c-3.4,0-6.2-2.8-6.2-6.2v-19.5
			c0-3.4,2.8-6.2,6.2-6.2l0,0C364.4,243.9,367.2,246.7,367.2,250.2C367.2,250.2,367.2,250.2,367.2,250.2z" />
			<path class="st5" d="M218,235.8L218,235.8c-0.6,0-1.1,0.1-1.7,0.2c-3.5,0.8-6,3.9-6,7.5v24c0,3.6,2.5,6.7,6,7.5
			c0.4,0.1,0.8,0.1,1.2,0.2v3.8h1.7v-3.9c3.8-0.6,6.6-3.8,6.5-7.6v-24C225.7,239.2,222.2,235.8,218,235.8z" />
			<rect x="213.6" y="274.4" class="st2" width="1.7" height="4.6" />
			<path class="st3" d="M221.8,243.5v24c0,4.2-3.4,7.7-7.7,7.7l0,0c-0.6,0-1.1-0.1-1.7-0.2c-3.5-0.8-6-3.9-6-7.5v-24
			c0-3.6,2.5-6.7,6-7.5c0.6-0.1,1.1-0.2,1.7-0.2l0,0C218.4,235.8,221.8,239.2,221.8,243.5z" />
			<path class="st5" d="M128.1,247.6L128.1,247.6c-3.1,0-5.6,2.5-5.6,5.6v17.4c0,2.6,1.8,4.9,4.3,5.4c0.3,0.1,0.6,0.1,0.9,0.1v2.8
			h1.2v-2.8c2.7-0.4,4.7-2.7,4.8-5.5v-17.4C133.7,250.1,131.2,247.6,128.1,247.6z" />
			<rect x="124.9" y="275.6" class="st2" width="1.2" height="3.3" />
			<path class="st3" d="M130.9,253.2v17.4c0,3.1-2.5,5.6-5.6,5.6h0l0,0c-0.4,0-0.8,0-1.2-0.1c-2.5-0.6-4.3-2.8-4.3-5.4v-17.4
			c0-2.6,1.8-4.9,4.3-5.4c0.4-0.1,0.8-0.1,1.2-0.1l0,0C128.4,247.6,130.9,250.1,130.9,253.2L130.9,253.2z" />
			<line class="st9" x1="33.4" y1="279.2" x2="396.4" y2="279.2" />
			<line class="st9" x1="307.4" y1="296.5" x2="363.2" y2="296.5" />
			<line class="st9" x1="208.1" y1="286.9" x2="235.4" y2="286.9" />
			<line class="st9" x1="53.6" y1="326.4" x2="180.9" y2="326.4" />
			<line class="st9" x1="10.8" y1="298" x2="59.9" y2="298" />
			<line class="st9" x1="244.8" y1="310.5" x2="265.9" y2="310.5" />
			<line class="st9" x1="380.3" y1="318.5" x2="401.4" y2="318.5" />
			<line class="st9" x1="196.8" y1="341.5" x2="210.9" y2="341.5" />
		</g>
	</g>
</svg>
