<?xml version="1.0" encoding="UTF-8"?>
<svg xmlns="http://www.w3.org/2000/svg" id="Icons" viewBox="0 0 74 74" width="512" height="512">
	<g fill="#007cc4">
		<path d="M40.854,72H33.146a2,2,0,0,1-1.968-1.645l-.906-5A28.857,28.857,0,0,1,21.713,61.8l-4.182,2.9a2,2,0,0,1-2.554-.229L9.526,59.023A2,2,0,0,1,9.3,56.47l2.9-4.183a28.912,28.912,0,0,1-3.552-8.559l-5-.906A2,2,0,0,1,2,40.854V33.146a2,2,0,0,1,1.645-1.969l5-.905A28.912,28.912,0,0,1,12.2,21.713L9.3,17.531a2,2,0,0,1,.229-2.555l5.451-5.45A2,2,0,0,1,17.531,9.3l4.182,2.9a28.846,28.846,0,0,1,8.559-3.551l.906-5A2,2,0,0,1,33.146,2h7.708a2,2,0,0,1,1.968,1.645l.906,5A28.846,28.846,0,0,1,52.287,12.2l4.182-2.9a2,2,0,0,1,2.554.229l5.451,5.451a2,2,0,0,1,.23,2.553l-2.9,4.183a28.912,28.912,0,0,1,3.552,8.559l5,.906A2,2,0,0,1,72,33.146v7.708a2,2,0,0,1-1.645,1.969l-5,.905A28.912,28.912,0,0,1,61.8,52.287l2.9,4.182a2,2,0,0,1-.229,2.555l-5.451,5.45a2,2,0,0,1-2.554.229l-4.182-2.9a28.857,28.857,0,0,1-8.559,3.551l-.906,5A2,2,0,0,1,40.854,72ZM22.236,59.766a26.908,26.908,0,0,0,9.11,3.778,1,1,0,0,1,.777.8L33.146,70h7.708l1.023-5.656a1,1,0,0,1,.777-.8,26.9,26.9,0,0,0,9.094-3.768.952.952,0,0,1,.116-.068,1,1,0,0,1,1.055.1l4.69,3.254,5.451-5.451-3.249-4.684a1,1,0,0,1-.048-1.157,26.909,26.909,0,0,0,3.781-9.114,1,1,0,0,1,.8-.777L70,40.854V33.146l-5.655-1.023a1,1,0,0,1-.8-.777,26.909,26.909,0,0,0-3.781-9.114,1,1,0,0,1,.058-1.172l3.24-4.669L57.609,10.94l-4.673,3.242a1,1,0,0,1-1.07.111,1.148,1.148,0,0,1-.1-.059,26.9,26.9,0,0,0-9.109-3.778,1,1,0,0,1-.777-.8L40.854,4H33.146L32.123,9.656a1,1,0,0,1-.777.8,26.9,26.9,0,0,0-9.094,3.768.952.952,0,0,1-.116.068,1,1,0,0,1-1.055-.1l-4.69-3.254L10.94,16.391l3.249,4.684a1,1,0,0,1,.048,1.157,26.909,26.909,0,0,0-3.781,9.114,1,1,0,0,1-.8.777L4,33.146v7.708l5.655,1.023a1,1,0,0,1,.8.777,26.909,26.909,0,0,0,3.781,9.114,1,1,0,0,1-.058,1.172l-3.24,4.669,5.452,5.451,4.673-3.242a1,1,0,0,1,1.07-.111A.869.869,0,0,1,22.236,59.766Z" />
		<path d="M40.029,57.77a1,1,0,0,1-.147-1.989,19.152,19.152,0,0,0,2.776-.637,1,1,0,0,1,.584,1.913,21.2,21.2,0,0,1-3.063.7A.964.964,0,0,1,40.029,57.77Z" />
		<path d="M31.951,57.36a1,1,0,0,1-.253-.032A21,21,0,1,1,58,37a20.753,20.753,0,0,1-1.293,7.259,1,1,0,0,1-1.875-.7A18.731,18.731,0,0,0,56,37,19,19,0,1,0,32.2,55.392a1,1,0,0,1-.251,1.968Z" />
		<path d="M49.161,53.87a1,1,0,0,1-.6-1.8,16.825,16.825,0,0,0,2.162-1.935A1,1,0,0,1,52.182,51.5a19.027,19.027,0,0,1-2.418,2.166A1,1,0,0,1,49.161,53.87Z" />
		<path d="M44.592,46.75H29.408a2.087,2.087,0,0,1-2.084-2.084V37.074a2.087,2.087,0,0,1,2.084-2.085H44.592a2.087,2.087,0,0,1,2.084,2.085v7.592A2.087,2.087,0,0,1,44.592,46.75ZM29.408,36.989a.085.085,0,0,0-.084.085v7.592a.085.085,0,0,0,.084.084H44.592a.085.085,0,0,0,.084-.084V37.074a.085.085,0,0,0-.084-.085Z" />
		<path d="M42.4,36.989H31.6a1,1,0,0,1-1-1V31.9a6.4,6.4,0,0,1,12.8,0v4.091A1,1,0,0,1,42.4,36.989Zm-9.8-2h8.8V31.9a4.4,4.4,0,0,0-8.8,0Z" />
		<path d="M37,42.615a1,1,0,0,1-1-1V40.124a1,1,0,1,1,2,0v1.491A1,1,0,0,1,37,42.615Z" />
	</g>
</svg>
