<svg height="512pt" viewBox="-56 0 512 512" width="512pt" xmlns="http://www.w3.org/2000/svg" fill="sidebarItem">
	<path d="m32.0625 48.09375v32.0625h-32.0625v431.84375h303.59375v-32.0625h32.0625v-312.609375h-15.03125v297.578125h-273.53125v-401.78125h193.375v88.171875h95.1875v-19.144531l-84.058594-84.058594zm256.5 431.84375v17.03125h-273.53125v-401.78125h17.03125v384.75zm-33.0625-406.6875 63.015625 63.015625h-63.015625zm0 0" />
	<path d="m80.15625 88.171875v111.21875h111.21875v-111.21875zm96.1875 96.1875h-81.15625v-81.15625h81.15625zm0 0" />
	<path d="m216.421875 184.359375h80.15625v15.03125h-80.15625zm0 0" />
	<path d="m80.15625 224.4375h216.421875v15.03125h-216.421875zm0 0" />
	<path d="m80.15625 264.515625h216.421875v15.03125h-216.421875zm0 0" />
	<path d="m80.15625 304.59375h216.421875v15.03125h-216.421875zm0 0" />
	<path d="m80.15625 344.671875h216.421875v15.03125h-216.421875zm0 0" />
	<path d="m80.15625 384.75h104.203125v15.03125h-104.203125zm0 0" />
	<path d="m295.578125 439.859375v-55.109375h-87.171875v55.109375zm-72.140625-40.078125h57.109375v25.046875h-57.109375zm0 0" />
	<path d="m80.15625 424.828125h16.03125v15.03125h-16.03125zm0 0" />
	<path d="m112.21875 424.828125h16.03125v15.03125h-16.03125zm0 0" />
	<path d="m144.28125 424.828125h16.03125v15.03125h-16.03125zm0 0" />
</svg>
