<?xml version="1.0" encoding="iso-8859-1"?>
<!-- Generator: Adobe Illustrator 19.0.0, SVG Export Plug-In . SVG Version: 6.00 Build 0)  -->
<svg version="1.1" id="Capa_1" xmlns="http://www.w3.org/2000/svg" xmlns:xlink="http://www.w3.org/1999/xlink" x="0px" y="0px"
	 viewBox="0 0 480.002 480.002" style="enable-background:new 0 0 480.002 480.002;" xml:space="preserve">
<g>
	<g>
		<path d="M111.632,256.2c5.392-6.917,8.335-15.428,8.368-24.198c0-22.091-17.909-40-40-40s-40,17.909-40,40
			c0.033,8.77,2.976,17.281,8.368,24.198C21.117,258.257,0.043,280.947,0,308.276v59.727c0,4.418,3.582,8,8,8h24v96
			c0,4.418,3.582,8,8,8h80c4.418,0,8-3.582,8-8v-96h24c4.418,0,8-3.582,8-8v-59.727C159.957,280.947,138.883,258.257,111.632,256.2z
			 M80,208.002c13.255,0,24,10.745,24,24s-10.745,24-24,24s-24-10.745-24-24C56.014,218.753,66.751,208.017,80,208.002z
			 M144,360.002h-16v-64h-16v168H88v-88H72v88H48v-168H32v64H16v-51.727c0.023-20.024,16.25-36.25,36.273-36.273h55.453
			c20.024,0.023,36.25,16.25,36.273,36.273V360.002z"/>
	</g>
</g>
<g>
	<g>
		<path d="M479.518,37.266c-0.809-2.223-2.56-3.974-4.783-4.783l-88-32c-4.155-1.508-8.746,0.637-10.254,4.792
			C376.163,6.149,376,7.072,376,8.002v144h-48c-4.418,0-8,3.582-8,8v72c0,4.418,3.582,8,8,8h112c4.418,0,8-3.582,8-8v-72
			c0-4.418-3.582-8-8-8h-48V77.607l82.734-30.085C478.887,46.01,481.029,41.419,479.518,37.266z M432,168.002v56h-96v-56h40v32h16
			v-32H432z M392,60.58V19.424l56.59,20.578L392,60.58z"/>
	</g>
</g>
<g>
	<g>
		<path d="M304,264.002h-88c-17.673,0-32-14.327-32-32s14.327-32,32-32h57.904l-31.025,25.855l10.242,12.289l48-40
			c3.394-2.827,3.853-7.869,1.027-11.262c-0.31-0.373-0.654-0.716-1.027-1.027l-48-40l-10.242,12.289l31.025,25.855H216
			c-26.51,0-48,21.49-48,48c0,26.51,21.49,48,48,48h88c39.765,0,72,32.235,72,72c0,39.764-32.235,72-72,72H168v16h136
			c48.601,0,88-39.399,88-88C392,303.401,352.601,264.002,304,264.002z"/>
	</g>
</g>
<g>
</g>
<g>
</g>
<g>
</g>
<g>
</g>
<g>
</g>
<g>
</g>
<g>
</g>
<g>
</g>
<g>
</g>
<g>
</g>
<g>
</g>
<g>
</g>
<g>
</g>
<g>
</g>
<g>
</g>
</svg>
